<?xml version="1.0" encoding="UTF-8"?>
<svg id="Capa_1" data-name="Capa 1" xmlns="http://www.w3.org/2000/svg" xmlns:xlink="http://www.w3.org/1999/xlink" viewBox="0 0 261.27 29.27">
  <defs>
    <style>
      .cls-1 {
        fill: url(#Degradado_sin_nombre_38);
      }
    </style>
    <linearGradient id="Degradado_sin_nombre_38" data-name="Degradado sin nombre 38" x1="0" y1="15.81" x2="261.27" y2="15.81" gradientUnits="userSpaceOnUse">
      <stop offset="0" stop-color="#ed6d81"/>
      <stop offset=".85" stop-color="#e33d48"/>
      <stop offset="1" stop-color="#e2353e"/>
    </linearGradient>
  </defs>
  <path class="cls-1" d="m261.27,29.27c-10.04,0-15.78-5.45-20.4-9.82-4.47-4.24-7.24-6.63-12.26-6.63s-7.8,2.4-12.26,6.63c-4.61,4.38-10.36,9.82-20.39,9.82s-15.78-5.45-20.4-9.82c-4.47-4.24-7.24-6.63-12.26-6.63s-7.8,2.4-12.26,6.63c-4.61,4.38-10.36,9.82-20.39,9.82s-15.78-5.45-20.4-9.82c-4.47-4.24-7.24-6.63-12.26-6.63s-7.8,2.4-12.26,6.63c-4.62,4.38-10.36,9.82-20.4,9.82s-15.78-5.45-20.39-9.82c-4.47-4.24-7.24-6.63-12.26-6.63s-7.8,2.4-12.26,6.63c-4.61,4.38-10.36,9.82-20.39,9.82v-10.46c5.86,0,9.1-3.07,13.19-6.95,4.47-4.23,10.02-9.51,19.47-9.51s15,5.27,19.46,9.51c4.1,3.88,7.33,6.95,13.2,6.95s9.1-3.07,13.2-6.95c4.47-4.23,10.02-9.51,19.47-9.51s15,5.27,19.46,9.51c4.1,3.88,7.33,6.95,13.2,6.95s9.1-3.07,13.2-6.95c4.47-4.23,10.02-9.51,19.46-9.51s15,5.27,19.46,9.51c4.1,3.88,7.33,6.95,13.2,6.95s9.1-3.07,13.19-6.95c4.47-4.23,10.02-9.51,19.47-9.51s15,5.27,19.46,9.51c4.1,3.88,7.33,6.95,13.2,6.95v10.46Z"/>
</svg>